<svg version="1.1" id="Layer_1" xmlns="http://www.w3.org/2000/svg" x="0" y="0" viewBox="0 0 256 256" style="enable-background:new 0 0 256 256" xml:space="preserve"><style>.st1{fill:#ffefe4}.st5{fill:#d476e2}.st6{fill:#b665c2}.st9{fill:#ff8354}</style><path class="st9" d="M236.067 113.934h-20v-6.25c0-48.349-39.335-87.684-87.685-87.684s-87.685 39.335-87.685 87.684v6.25h-20v-6.25C20.698 48.307 69.005 0 128.383 0s107.685 48.307 107.685 107.684v6.25z"/><path d="M128.383 0C69.005 0 20.698 48.307 20.698 107.684v6.25h.01C21.114 54.901 69.256 7 128.383 7s107.269 47.901 107.675 106.934h.01v-6.25C236.067 48.307 187.761 0 128.383 0z" style="fill:#ffa172"/><path class="st5" d="M238.891 188.144h-25.648a4.401 4.401 0 0 1-4.401-4.401v-75.409c0-2.43 1.97-4.401 4.401-4.401h25.648c2.43 0 4.401 1.97 4.401 4.401v75.409a4.4 4.4 0 0 1-4.401 4.401z"/><path class="st6" d="M242.526 167.934v-43.789c7.441 0 13.474 6.032 13.474 13.474v16.842c0 7.44-6.032 13.473-13.474 13.473zM13.474 167.934C6.032 167.934 0 161.901 0 154.46v-16.842c0-7.441 6.032-13.474 13.474-13.474v43.79z"/><path class="st5" d="M43.523 188.144H17.874a4.401 4.401 0 0 1-4.401-4.401v-75.409c0-2.43 1.97-4.401 4.401-4.401h25.648c2.43 0 4.401 1.97 4.401 4.401v75.409a4.4 4.4 0 0 1-4.4 4.401z"/><path class="st9" d="M219.605 188.145c0 24.507-19.94 44.447-44.447 44.447h-6.265c-1.892-2.626-4.969-4.342-8.452-4.342h-15.598c-5.755 0-10.421 4.666-10.421 10.421 0 5.755 4.666 10.421 10.421 10.421h15.598c3.484 0 6.56-1.716 8.452-4.342h6.265c31.212 0 56.605-25.393 56.605-56.605h-12.158z"/><path d="M175.158 237.75h-6.265c-1.892 2.626-4.969 4.342-8.452 4.342h-15.598c-4.525 0-8.366-2.89-9.806-6.921a10.38 10.38 0 0 0-.615 3.5c0 5.755 4.666 10.421 10.421 10.421h15.598c3.484 0 6.56-1.716 8.452-4.342h6.265c31.212 0 56.605-25.393 56.605-56.605h-.448c-3.462 27.919-27.317 49.605-56.157 49.605z" style="fill:#e0734a"/><circle class="st9" cx="128" cy="128" r="68.724"/><path class="st1" d="M137.948 128c0-5.494-4.454-9.948-9.948-9.948s-9.948 4.454-9.948 9.948c0 3.522 1.836 6.61 4.598 8.378L110.229 172.4c5.496 2.202 11.489 3.426 17.772 3.426s12.276-1.224 17.772-3.426l-12.421-36.022c2.76-1.768 4.596-4.856 4.596-8.378z"/><path class="st1" d="M151.09 150.437a3.919 3.919 0 0 1-3.052-6.373c3.7-4.605 5.656-10.16 5.656-16.063 0-14.168-11.526-25.694-25.694-25.694S102.306 113.832 102.306 128a25.424 25.424 0 0 0 5.332 15.651 3.918 3.918 0 1 1-6.207 4.783c-4.554-5.909-6.961-12.976-6.961-20.435 0-18.489 15.041-33.53 33.53-33.53s33.53 15.041 33.53 33.53a33.605 33.605 0 0 1-7.383 20.972 3.907 3.907 0 0 1-3.057 1.466z"/><path class="st1" d="M98.691 169.688c-.841 0-1.688-.27-2.402-.825-12.731-9.899-20.032-24.794-20.032-40.863 0-28.531 23.212-51.743 51.743-51.743S179.743 99.469 179.743 128c0 15.899-7.177 30.696-19.691 40.597a3.914 3.914 0 0 1-5.504-.643 3.918 3.918 0 0 1 .643-5.504c10.623-8.404 16.717-20.961 16.717-34.45 0-24.21-19.697-43.907-43.907-43.907S84.093 103.79 84.093 128c0 13.634 6.199 26.272 17.007 34.676a3.919 3.919 0 0 1-2.409 7.012z"/></svg>